<svg width="122" height="23" viewBox="0 0 122 23" fill="none" xmlns="http://www.w3.org/2000/svg">
<path fill-rule="evenodd" clip-rule="evenodd" d="M22.6728 8.36765C20.2491 4.40433 16.1571 3.45271 13.136 3.88146L12.9895 2.98213C16.3375 2.50109 20.8579 3.54682 23.5182 7.91798L22.6728 8.36765Z" fill="#1064EE"/>
<path d="M12.5047 22.1086C6.10182 22.1086 0.893818 17.2669 0.893818 11.3166C0.893818 8.44089 2.1 5.76381 4.29818 3.76647C6.48509 1.77958 9.39345 0.692017 12.5047 0.692017C15.616 0.692017 18.5356 1.79003 20.7113 3.76647C22.9095 5.76381 24.1156 8.44089 24.1156 11.3166C24.1156 17.2669 18.9076 22.1086 12.5047 22.1086ZM12.5047 1.59135C9.65273 1.59135 6.98109 2.59525 4.97455 4.41482C2.968 6.24485 1.86327 8.69186 1.86327 11.3166C1.86327 16.7649 6.63164 21.1988 12.5047 21.1988C18.3778 21.1988 23.1462 16.7649 23.1462 11.3166C23.1462 8.69186 22.0415 6.2344 20.0349 4.41482C18.0284 2.59525 15.3567 1.59135 12.5047 1.59135Z" fill="#1064EE"/>
<path fill-rule="evenodd" clip-rule="evenodd" d="M13.3163 14.5269C9.97961 14.5269 7.24033 11.9858 7.22906 8.8695C7.20652 5.73231 9.67524 3.30621 13.2262 2.96112L13.3276 3.86045C9.7767 4.20554 8.18724 6.62118 8.19852 8.85904C8.20979 11.4838 10.5094 13.6171 13.3163 13.6171C14.7254 13.6171 16.0331 13.0943 17.0025 12.1636L17.7014 12.791C16.5403 13.9099 14.9847 14.5269 13.3163 14.5269Z" fill="#1064EE"/>
<path fill-rule="evenodd" clip-rule="evenodd" d="M10.9491 19.9439V19.0445C12.9219 19.0445 14.6353 18.4485 15.7851 17.3505C16.7095 16.472 17.1717 15.3427 17.1378 14.0773C17.0702 11.4107 14.8157 9.31924 12.02 9.31924C10.6109 9.31924 9.30331 9.84211 8.33385 10.7728L7.63494 10.1454C8.79603 9.02644 10.3517 8.40945 12.0313 8.40945C15.3568 8.40945 18.0397 10.8878 18.1186 14.0564C18.1637 15.5727 17.6 16.9322 16.484 17.9884C15.1539 19.2537 13.1811 19.9439 10.9491 19.9439Z" fill="#1064EE"/>
<path fill-rule="evenodd" clip-rule="evenodd" d="M10.7011 19.9542C3.90362 19.9542 1.87453 15.6667 1.78434 15.4785L2.68616 15.123C2.76507 15.2903 4.69271 19.2641 11.2647 19.034L11.2985 19.9438C11.0956 19.9542 10.904 19.9542 10.7011 19.9542Z" fill="#0071CE"/>
<path d="M13.0571 7.94936C12.0876 7.94936 11.2985 7.21734 11.2985 6.31802C11.2985 5.41869 12.0876 4.68668 13.0571 4.68668C14.0265 4.68668 14.8156 5.41869 14.8156 6.31802C14.8156 7.21734 14.0265 7.94936 13.0571 7.94936ZM13.0571 5.586C12.6287 5.586 12.2793 5.91018 12.2793 6.31802C12.2793 6.72585 12.6287 7.05003 13.0571 7.05003C13.4855 7.05003 13.8349 6.72585 13.8349 6.31802C13.8349 5.91018 13.4855 5.586 13.0571 5.586Z" fill="#1064EE"/>
<path d="M5.09857 9.48641C4.12912 9.48641 3.34003 8.7544 3.34003 7.85507C3.34003 6.95574 4.12912 6.22372 5.09857 6.22372C6.06803 6.22372 6.85712 6.95574 6.85712 7.85507C6.85712 8.7544 6.06803 9.48641 5.09857 9.48641ZM5.09857 7.12305C4.67021 7.12305 4.32075 7.44723 4.32075 7.85507C4.32075 8.2629 4.67021 8.58708 5.09857 8.58708C5.52694 8.58708 5.87639 8.2629 5.87639 7.85507C5.87639 7.44723 5.52694 7.12305 5.09857 7.12305Z" fill="#1064EE"/>
<path d="M18.0735 9.978C16.7996 9.978 15.7625 9.01593 15.7625 7.82379C15.7625 6.64212 16.7996 5.66959 18.0735 5.66959C19.3473 5.66959 20.3844 6.63166 20.3844 7.82379C20.3956 9.00547 19.3473 9.978 18.0735 9.978ZM18.0735 6.57937C17.3295 6.57937 16.732 7.13361 16.732 7.82379C16.732 8.51398 17.3295 9.06821 18.0735 9.06821C18.8175 9.06821 19.4149 8.51398 19.4149 7.82379C19.4149 7.13361 18.8175 6.57937 18.0735 6.57937Z" fill="#1064EE"/>
<path d="M5.13237 14.778C3.85856 14.778 2.82146 13.8159 2.82146 12.6238C2.82146 11.4316 3.84728 10.4696 5.13237 10.4696C6.41746 10.4696 7.44328 11.4316 7.44328 12.6238C7.44328 13.8055 6.40619 14.778 5.13237 14.778ZM5.13237 11.3794C4.38837 11.3794 3.79092 11.9336 3.79092 12.6238C3.79092 13.314 4.38837 13.8682 5.13237 13.8682C5.87637 13.8682 6.47383 13.314 6.47383 12.6238C6.47383 11.9336 5.8651 11.3794 5.13237 11.3794Z" fill="#1064EE"/>
<path d="M20.6098 14.234C19.5051 14.234 18.6033 13.3974 18.6033 12.3726C18.6033 11.3478 19.5051 10.5112 20.6098 10.5112C21.7146 10.5112 22.6164 11.3478 22.6164 12.3726C22.6051 13.3974 21.7146 14.234 20.6098 14.234ZM20.6098 11.421C20.0462 11.421 19.584 11.8498 19.584 12.3726C19.584 12.8955 20.0462 13.3242 20.6098 13.3242C21.1735 13.3242 21.6357 12.8955 21.6357 12.3726C21.6357 11.8498 21.1735 11.421 20.6098 11.421Z" fill="#1064EE"/>
<path d="M8.95384 18.0405C7.84911 18.0405 6.94729 17.2039 6.94729 16.1791C6.94729 15.1543 7.84911 14.3177 8.95384 14.3177C10.0586 14.3177 10.9604 15.1543 10.9604 16.1791C10.9491 17.2039 10.0586 18.0405 8.95384 18.0405ZM8.95384 15.2275C8.3902 15.2275 7.92802 15.6563 7.92802 16.1791C7.92802 16.702 8.3902 17.1307 8.95384 17.1307C9.51747 17.1307 9.97966 16.702 9.97966 16.1791C9.97966 15.6563 9.51747 15.2275 8.95384 15.2275Z" fill="#1064EE"/>
<path d="M110.183 4.0488H112.821C117.702 4.0488 121.072 7.16508 121.072 11.2225V11.2643C121.072 15.3218 117.702 18.4799 112.821 18.4799H106.767V6.9141L110.183 4.0488ZM112.821 15.6146C115.616 15.6146 117.499 13.8578 117.499 11.3062V11.2643C117.499 8.71276 115.616 6.9141 112.821 6.9141H110.183V15.6146H112.821Z" fill="#1064EE"/>
<path fill-rule="evenodd" clip-rule="evenodd" d="M32.1756 5.96239L35.8167 4.04871V10.8773L40.0891 6.53755H44.4516L39.5593 11.2329L44.6094 18.4798H40.4498L37.0905 13.5962L35.8167 14.8511V18.4798H32.1756V5.96239Z" fill="#0F265C"/>
<path fill-rule="evenodd" clip-rule="evenodd" d="M45.4099 6.53766H49.051V8.94284C49.795 7.29059 50.9899 6.22394 53.1543 6.3076V9.85263H52.9626C50.539 9.85263 49.051 11.2121 49.051 14.0669V18.4799H45.4099V6.53766Z" fill="#0F265C"/>
<path d="M53.0979 15.0499V15.0081C53.0979 12.4042 55.2284 11.2017 58.272 11.2017C59.5684 11.2017 60.5041 11.4003 61.4171 11.6931V11.4945C61.4171 10.0932 60.4815 9.30888 58.6553 9.30888C57.2688 9.30888 56.288 9.5494 55.1044 9.95723L54.1913 7.37427C55.6004 6.79912 56.9982 6.4122 59.1739 6.4122C61.1579 6.4122 62.6008 6.90369 63.5139 7.75074C64.472 8.63961 64.9004 9.95723 64.9004 11.5572V18.4904H61.372V17.1937C60.4815 18.1035 59.264 18.71 57.4942 18.71C55.0819 18.6995 53.0979 17.4133 53.0979 15.0499ZM61.4622 14.2656V13.6591C60.8422 13.3872 60.0193 13.2095 59.14 13.2095C57.5844 13.2095 56.6262 13.7846 56.6262 14.8617V14.9035C56.6262 15.8133 57.4379 16.3571 58.6102 16.3571C60.3124 16.3676 61.4622 15.4892 61.4622 14.2656Z" fill="#0F265C"/>
<path fill-rule="evenodd" clip-rule="evenodd" d="M66.7266 5.96249L70.3677 4.0488V10.8774L74.6401 6.53764H79.0026L74.1102 11.233L79.1717 18.4799H75.0008L71.6415 13.5963L70.3677 14.8512V18.4799H66.7266V5.96249Z" fill="#0F265C"/>
<path d="M78.732 12.5716V12.5298C78.732 9.1207 81.3473 6.30768 85.0786 6.30768C89.3735 6.30768 91.3349 9.40304 91.3349 12.7912C91.3349 13.0631 91.3124 13.3664 91.2898 13.6801H82.3506C82.7113 15.2173 83.8611 16.0225 85.4956 16.0225C86.7131 16.0225 87.6037 15.667 88.6069 14.799L90.6924 16.514C89.4975 17.8944 87.7727 18.7414 85.4393 18.7414C81.584 18.7519 78.732 16.2317 78.732 12.5716ZM87.7953 11.5677C87.5811 10.0514 86.6229 9.02658 85.0898 9.02658C83.5793 9.02658 82.5986 10.0305 82.3055 11.5677H87.7953Z" fill="#0F265C"/>
<path fill-rule="evenodd" clip-rule="evenodd" d="M92.7328 6.53769H96.3739V8.23178C97.2081 7.22787 98.2903 6.31808 100.139 6.31808C102.89 6.31808 104.502 8.01217 104.502 10.752V18.4904H100.86V11.8291C100.86 10.2291 100.049 9.40299 98.651 9.40299C97.2644 9.40299 96.3739 10.2291 96.3739 11.8291V18.4904H92.7328V6.53769Z" fill="#0F265C"/>
</svg>
